<svg width="13" height="13" viewBox="0 0 13 13" fill="none" xmlns="http://www.w3.org/2000/svg">
<path d="M12.394 2.05413L10.7138 0.375486C10.5953 0.25644 10.4544 0.161986 10.2993 0.0975481C10.1441 0.0331105 9.97779 -4.02615e-05 9.8098 3.66958e-08C9.46745 3.66958e-08 9.14562 0.134102 8.90424 0.375486L7.09625 2.1835C6.97721 2.30202 6.88276 2.4429 6.81832 2.59803C6.75388 2.75317 6.72073 2.91951 6.72077 3.0875C6.72077 3.42985 6.85487 3.7517 7.09625 3.99308L8.41832 5.31517C8.10885 5.99729 7.6786 6.61783 7.14831 7.14684C6.61936 7.67842 5.99889 8.11025 5.31667 8.4216L3.9946 7.09951C3.87608 6.98047 3.7352 6.88601 3.58007 6.82158C3.42493 6.75714 3.25859 6.72399 3.09061 6.72403C2.74826 6.72403 2.42642 6.85813 2.18504 7.09951L0.375481 8.90595C0.256291 9.02469 0.161757 9.16583 0.0973171 9.32124C0.0328775 9.47666 -0.0001955 9.64328 8.69341e-07 9.81153C8.69341e-07 10.1539 0.134101 10.4757 0.375481 10.7171L2.05252 12.3942C2.43746 12.7807 2.96913 13 3.515 13C3.63016 13 3.7406 12.9905 3.84946 12.9716C5.97612 12.6214 8.08544 11.4902 9.78772 9.78944C11.4884 8.09029 12.618 5.98252 12.973 3.84951C13.0803 3.19794 12.8641 2.52743 12.394 2.05413Z" fill="white"/>
</svg>
