<svg width="32" height="31" viewBox="0 0 32 31" fill="none" xmlns="http://www.w3.org/2000/svg">
<path d="M6.28999 0.0642242C5.91405 0.167303 5.61088 0.361334 5.3259 0.688761C4.89539 1.1799 4.8772 1.28298 4.84688 3.51433L4.82263 5.50315H3.1855C1.61506 5.50315 1.53623 5.49708 1.31189 5.36975C0.917762 5.15147 0.784365 4.68458 1.01478 4.30865C1.20274 3.99335 1.32401 3.95697 2.38512 3.92665C3.24007 3.90239 3.38559 3.8842 3.49473 3.78113C3.65845 3.62954 3.66451 3.30211 3.5008 3.1384C3.39165 3.02926 3.3007 3.01713 2.33661 3.01713C1.36646 3.01713 1.26338 3.02926 0.98446 3.16265C0.572144 3.35062 0.190146 3.79325 0.068877 4.21769C-0.252486 5.32731 0.590335 6.41267 1.77271 6.41267H2.02737L2.06376 6.92806C2.08801 7.23123 2.14864 7.5526 2.21534 7.71025C2.37906 8.07405 2.7368 8.45605 3.10061 8.64402C3.51292 8.85624 4.23448 8.87443 4.65892 8.67434C5.34409 8.3651 5.67152 7.85577 5.76853 6.97657L5.82917 6.41267H9.12162C12.402 6.41267 12.4141 6.41267 12.4141 6.53394C12.4141 6.84924 12.7658 7.22517 13.1296 7.29793C13.2933 7.33431 13.3297 7.39495 13.651 8.20139C13.839 8.67434 14.0573 9.12303 14.1361 9.19579C14.2877 9.33525 14.5909 9.4444 14.8455 9.4444C15.0032 9.4444 15.0092 9.45046 15.0335 9.9416C15.0578 10.3842 15.082 10.4509 15.2275 10.5783C15.4337 10.7541 15.5792 10.7541 15.7854 10.5783C15.9309 10.4509 15.9551 10.3842 15.9794 9.9416C16.0037 9.45046 16.0097 9.4444 16.1674 9.4444C16.422 9.4444 16.7252 9.33525 16.8768 9.19579C16.9556 9.12303 17.1739 8.67434 17.3619 8.20139C17.6832 7.39495 17.7196 7.33431 17.8833 7.29793C18.2471 7.22517 18.5988 6.84924 18.5988 6.53394V6.41267H24.0438C30.0527 6.41267 29.8587 6.42479 30.368 6.03067C31.326 5.29699 31.1805 3.76293 30.0951 3.18084L29.8465 3.04745L24.2378 3.01713L18.6352 2.98681L18.5806 2.76853C18.5503 2.64726 18.4351 2.45929 18.3199 2.34409L18.1077 2.13793L17.0526 2.11974C16.034 2.10155 16.0037 2.09548 15.9673 1.96815C15.9491 1.89539 15.9309 1.76199 15.9309 1.6771C15.9309 1.14958 15.4398 0.47654 14.8516 0.185493L14.506 0.0157166L10.5344 0.00358963C7.52087 -0.00853729 6.49615 0.00965309 6.28999 0.0642242ZM14.4757 1.02831C14.8273 1.20415 15.0214 1.50126 15.0214 1.84082V2.10155L13.9663 2.11974L12.9052 2.13793L12.693 2.34409C12.5778 2.45929 12.4626 2.64726 12.4323 2.76853L12.3777 2.98681L9.78254 3.01713C7.30259 3.04745 7.18738 3.05351 7.10249 3.16265C6.97516 3.33849 6.99335 3.64773 7.14494 3.78113C7.26621 3.89027 7.41173 3.89633 9.84318 3.91452L12.4141 3.93271V4.7149V5.50315H9.1095H5.80491V3.53859C5.80491 1.60434 5.80491 1.57403 5.94437 1.37393C6.01713 1.25873 6.19904 1.10714 6.35062 1.02831L6.61742 0.894918H10.4131H14.2089L14.4757 1.02831ZM17.6893 4.7149V6.41267H15.5064H13.3236V4.7149V3.01713H15.5064H17.6893V4.7149ZM29.701 4.0176C30.2589 4.30865 30.2407 5.12721 29.6707 5.38794C29.4342 5.49708 29.1432 5.50315 24.0135 5.50315H18.5988V4.7149V3.92665H24.0559C28.8703 3.92665 29.5434 3.93878 29.701 4.0176ZM4.83476 6.86136C4.83476 7.21911 4.8105 7.34038 4.70136 7.50409C4.50127 7.79514 4.19809 7.94066 3.85854 7.91034C3.3007 7.86183 2.96115 7.42526 2.95508 6.75828V6.41267H3.89492H4.83476V6.86136ZM16.7191 7.34038C16.7191 7.3525 16.6161 7.6193 16.4887 7.9346L16.2583 8.50456H15.5064H14.7546L14.5242 7.9346C14.3968 7.6193 14.2938 7.3525 14.2938 7.34038C14.2938 7.32825 14.8395 7.32219 15.5064 7.32219C16.1734 7.32219 16.7191 7.32825 16.7191 7.34038Z" fill="white"/>
<path d="M14.8698 11.8213C14.5302 11.9486 5.71396 17.0298 5.5078 17.2238C5.22282 17.4967 5.06517 17.8665 5.07123 18.2971C5.07123 19.3157 6.05351 20.0009 7.0176 19.6613C7.15706 19.6128 7.28439 19.5704 7.29652 19.5704C7.30865 19.5704 7.32078 20.2252 7.3329 21.0317C7.35109 22.4808 7.35109 22.493 7.49662 22.6082C7.67852 22.7598 7.95744 22.7537 8.10903 22.6021C8.22423 22.4869 8.23029 22.402 8.23029 20.7588C8.23029 19.4552 8.24848 19.0247 8.30912 18.9762C8.3455 18.9458 9.96444 18.0121 11.8926 16.9025L15.4034 14.8955L18.4412 16.6357C20.1147 17.5937 21.7154 18.5153 22.0125 18.6851L22.5401 18.9883V23.069V27.1497H18.9929H15.4458V24.3302V21.5107H15.652C16.1067 21.5107 16.3493 21.0256 16.034 20.7346C15.8945 20.6012 15.8884 20.6012 12.9355 20.6012H9.98263L9.83711 20.7528C9.75222 20.8316 9.68552 20.971 9.68552 21.0559C9.68552 21.2863 9.94019 21.5107 10.2009 21.5107H10.4131V24.3302V27.1497H9.32172H8.23029V25.6763C8.23029 24.0513 8.23029 24.0573 7.85436 23.9664C7.72096 23.93 7.65427 23.9603 7.50268 24.1058L7.32078 24.2877V25.7187V27.1436L4.39819 27.1618L1.46954 27.18L1.13605 27.3377C0.72373 27.5378 0.396303 27.8531 0.184082 28.2593C0.0446224 28.5261 0.0203686 28.6534 0.0143051 29.09C0.0143051 29.563 0.0324955 29.6357 0.220463 29.9874C0.444811 30.3997 0.72373 30.6544 1.17849 30.8666L1.46954 31H15.5064H29.5434L29.8344 30.8666C30.2952 30.6544 30.5681 30.3997 30.7924 29.9874C30.9804 29.6357 30.9986 29.563 30.9925 29.09C30.9925 28.6534 30.9683 28.5261 30.8349 28.2714C30.6166 27.8531 30.2831 27.5256 29.8829 27.3377L29.5434 27.18L26.4995 27.1618L23.4496 27.1436V23.3297V19.5158L23.7103 19.631C24.3773 19.9402 25.2201 19.6249 25.59 18.9337C25.7901 18.5578 25.7779 17.9332 25.5536 17.5573C25.4626 17.3997 25.2989 17.2056 25.1898 17.1268C24.8866 16.8964 16.1916 11.9244 15.943 11.8334C15.6762 11.7364 15.1244 11.7303 14.8698 11.8213ZM20.1996 15.2774C23.2616 17.0359 24.6987 17.8969 24.7593 17.9939C24.8927 18.2425 24.8624 18.4729 24.6683 18.6669C24.5471 18.7821 24.4258 18.8428 24.3045 18.8428C24.1651 18.8428 23.4193 18.4426 21.673 17.4421C16.5069 14.471 15.7732 14.0587 15.5671 14.0223C15.4397 13.9981 15.2518 14.0162 15.1063 14.0708C14.9729 14.1133 13.0386 15.1986 10.8133 16.478C8.58197 17.7574 6.69624 18.8124 6.61741 18.8306C6.41732 18.867 6.1384 18.7397 6.04745 18.5699C5.93831 18.3577 5.9565 18.0545 6.09596 17.9151C6.16265 17.8544 8.23029 16.6417 10.6921 15.2229C15.0456 12.7247 15.179 12.652 15.4458 12.6762C15.6702 12.7005 16.4887 13.1431 20.1996 15.2774ZM14.5363 24.3302V27.1497H12.9295H11.3227V24.3302V21.5107H12.9295H14.5363V24.3302ZM29.4039 28.132C29.8768 28.2714 30.1861 28.805 30.0951 29.3083C30.0406 29.5933 29.6828 29.9813 29.4039 30.0602C29.0947 30.1451 1.91823 30.1451 1.609 30.0602C1.48166 30.0238 1.29976 29.8965 1.17849 29.757C0.808618 29.3507 0.802555 28.8293 1.16636 28.4291C1.28157 28.3018 1.46347 28.1684 1.57261 28.138C1.87579 28.041 29.0825 28.035 29.4039 28.132Z" fill="white"/>
<path d="M17.6529 20.8073L17.4468 21.0135V22.4384C17.4468 24.409 17.3497 24.3181 19.381 24.2878L20.7331 24.2696L20.909 24.0695L21.0848 23.8754V22.4809C21.0848 21.6138 21.0606 21.0377 21.0181 20.9468C20.8726 20.6315 20.7271 20.6012 19.2355 20.6012H17.8591L17.6529 20.8073ZM20.1753 22.4505V23.3904H19.2658H18.3563V22.4505V21.5107H19.2658H20.1753V22.4505Z" fill="white"/>
</svg>
