<svg width="67" height="67" viewBox="0 0 67 67" fill="none" xmlns="http://www.w3.org/2000/svg">
<rect x="1" y="1" width="65" height="65" rx="7" stroke="#F5F5F5" stroke-width="2"/>
<path d="M50.9168 37.4076L47.0251 33.5159C46.7819 33.2728 46.452 33.1361 46.108 33.1361C45.764 33.1361 45.4341 33.2728 45.1909 33.5159L33.1359 45.571V51.2969H38.8618L50.9168 39.2419C51.16 38.9986 51.2966 38.6687 51.2966 38.3247C51.2966 37.9807 51.16 37.6509 50.9168 37.4076ZM37.7877 48.7024H35.7303V46.6451L42.2164 40.159L44.2737 42.2164L37.7877 48.7024ZM46.108 40.3821L44.0506 38.3247L46.108 36.2673L48.1654 38.3247L46.108 40.3821Z" fill="#EBEBEB"/>
<path d="M35.7303 35.7303V30.5414H38.3247V35.7303H35.7303Z" fill="#EBEBEB"/>
<path d="M30.5414 35.7303V27.947H33.1359V35.7303H30.5414Z" fill="#EBEBEB"/>
<path d="M25.3526 35.7303V22.7581H27.947V35.7303H25.3526Z" fill="#EBEBEB"/>
<path d="M27.947 51.2969H20.1637C19.4758 51.2962 18.8163 51.0226 18.3299 50.5362C17.8435 50.0498 17.57 49.3903 17.5693 48.7024V17.5693C17.57 16.8814 17.8435 16.2219 18.3299 15.7355C18.8163 15.2491 19.4758 14.9756 20.1637 14.9749H40.9191C41.607 14.9756 42.2665 15.2491 42.7529 15.7355C43.2393 16.2219 43.5129 16.8814 43.5136 17.5693V30.5414H40.9191V17.5693H20.1637V48.7024H27.947V51.2969Z" fill="#EBEBEB"/>
</svg>
