<svg width="13" height="13" viewBox="0 0 13 13" fill="none" xmlns="http://www.w3.org/2000/svg">
<path d="M11.7 4.79246V9.42501C11.7 9.85598 11.5288 10.2693 11.224 10.5741C10.9193 10.8788 10.506 11.05 10.075 11.05H2.92499C2.49401 11.05 2.08069 10.8788 1.77594 10.5741C1.47119 10.2693 1.29999 9.85598 1.29999 9.42501V4.79246L6.33489 7.75516C6.38491 7.78466 6.44192 7.80021 6.49999 7.80021C6.55806 7.80021 6.61507 7.78466 6.66509 7.75516L11.7 4.79246ZM10.075 2.60001C10.4748 2.59994 10.8607 2.7473 11.1587 3.01389C11.4567 3.28047 11.6459 3.64757 11.6902 4.04496L6.49999 7.09801L1.30974 4.04496C1.35404 3.64757 1.5433 3.28047 1.8413 3.01389C2.13931 2.7473 2.52514 2.59994 2.92499 2.60001H10.075Z" fill="white"/>
</svg>
