<svg width="31" height="31" viewBox="0 0 31 31" fill="none" xmlns="http://www.w3.org/2000/svg">
<path d="M16.2205 0.75078C16.1357 0.799217 15.8512 1.17461 15.5908 1.58633C14.949 2.59746 15.0217 2.53691 14.6584 2.30078C14.3375 2.10098 14.0408 2.05254 13.8229 2.17363C13.6352 2.27051 7.50781 11.8187 7.50781 12.0064C7.50781 12.2789 7.63496 12.4605 7.97402 12.6846L8.30703 12.9025L8.19805 13.066C7.32617 14.3859 7.19297 14.6221 7.22324 14.8521C7.24141 14.9793 7.28379 15.1186 7.32617 15.167C7.3625 15.2154 7.90742 15.5787 8.53105 15.9844C9.49375 16.602 9.70566 16.7109 9.90547 16.7109C10.0326 16.7109 10.184 16.6746 10.2445 16.6322C10.299 16.5898 10.5836 16.1842 10.8803 15.7301L11.4191 14.9066L11.7461 15.1125C12.0852 15.3244 12.3273 15.3668 12.5514 15.2457C12.7209 15.1609 12.6482 15.2639 14.0953 13.0176C14.7734 11.9701 15.3365 11.1043 15.3426 11.0982C15.3486 11.0922 15.5363 11.1164 15.7604 11.1527C16.4143 11.2617 17.1953 11.0377 17.6857 10.6078L17.8977 10.4201L18.4729 10.4746C19.2055 10.5473 19.8109 10.7168 20.4467 11.0377C21.5365 11.5826 22.3963 12.4545 22.9473 13.5867C23.3529 14.4162 23.4982 15.0641 23.4982 16.0025C23.4982 17.5828 22.8928 18.9754 21.7605 20.035L21.3186 20.4467L20.8705 20.477C20.4164 20.5072 19.8957 20.6949 19.5748 20.9492C19.4234 21.0703 19.3447 21.0703 15.4879 21.0703H11.5523L11.3768 21.2459C11.2314 21.3912 11.2012 21.476 11.2012 21.7C11.2012 21.8937 11.177 21.9785 11.1164 21.9785C11.074 21.9785 9.72988 21.5062 8.1375 20.925C6.53906 20.3438 5.18281 19.8654 5.11621 19.8594C4.8498 19.8291 4.73476 19.8654 4.57734 20.0168C4.45625 20.1439 4.41992 20.2408 4.41992 20.4467C4.41992 20.8221 4.56523 20.9371 5.38867 21.2398C5.77012 21.3791 7.2293 21.9119 8.62793 22.4205L11.1709 23.3408L11.1891 23.7949C11.2072 24.4186 11.2375 24.5094 11.4615 24.6426C11.6129 24.7395 11.7643 24.7637 12.1518 24.7637H12.6543L12.2486 25.5811L11.8369 26.3984H9.97207C7.93164 26.3984 7.45937 26.4529 6.87812 26.7436C6.09101 27.1371 5.44922 27.8637 5.19492 28.6447L5.06172 29.0625L3.18476 29.0686C1.04746 29.0686 0.938475 29.0867 0.768943 29.4379C0.623631 29.7346 0.714451 30.0494 0.992967 30.2189C1.17461 30.334 1.48945 30.334 15.5 30.334C29.5106 30.334 29.8254 30.334 30.007 30.2189C30.2856 30.0494 30.3764 29.7346 30.2311 29.4379C30.0615 29.0867 29.9525 29.0686 27.8152 29.0686L25.9322 29.0625L25.8172 28.6871C25.5871 27.9121 24.9332 27.1553 24.1885 26.7859C23.4861 26.4408 23.1531 26.3984 21.04 26.3984H19.1631L18.7514 25.5811L18.3457 24.7637H18.8846C19.3326 24.7637 19.4477 24.7818 19.5748 24.8848C19.6596 24.9514 19.8897 25.0846 20.0834 25.1754C20.3922 25.3207 20.5072 25.3389 21.04 25.3389C21.8695 25.3328 22.2268 25.1936 22.7717 24.6486C23.0381 24.3822 23.2137 24.14 23.3045 23.916C23.4195 23.6436 23.5285 23.5164 23.9342 23.1895C25.1754 22.1904 26.2531 20.5738 26.7799 18.9209C27.6639 16.1539 27.1916 13.1326 25.5084 10.7592C25.0604 10.1295 23.9645 9.03359 23.3408 8.58555C22.0148 7.64707 20.3195 7.02344 18.8301 6.92656C18.5152 6.90234 18.2186 6.86601 18.1762 6.84785C18.1217 6.81758 18.2125 6.62988 18.4971 6.19394C19.042 5.34023 19.0299 5.12226 18.4063 4.72265C18.2246 4.60762 18.1217 4.49863 18.1459 4.45625C18.1701 4.41992 18.4123 4.03848 18.6908 3.60859C19.2357 2.76094 19.2902 2.56113 19.0723 2.28262C18.8967 2.05859 16.7896 0.720507 16.5656 0.690233C16.4627 0.678123 16.3053 0.702343 16.2205 0.75078ZM17.2377 2.50059L17.7342 2.81543L17.4193 3.31191C17.2438 3.59043 17.0803 3.81445 17.0561 3.81445C16.9713 3.81445 16.0389 3.19687 16.057 3.15449C16.1115 3.02734 16.6746 2.17969 16.7049 2.17969C16.723 2.17969 16.9652 2.325 17.2377 2.50059ZM15.724 4.45625C16.4869 4.94668 17.1772 5.39473 17.268 5.46133L17.4314 5.57637L17.1772 5.96992L16.9229 6.35742L16.6807 6.31504C16.2568 6.23027 15.615 6.27871 15.2578 6.41191C13.7865 6.96894 13.2053 8.73691 14.0529 10.0568L14.2951 10.4262L14.0953 10.735C12.9994 12.4605 12.0912 13.835 12.0488 13.8229C12.0246 13.8168 11.3162 13.3687 10.4867 12.8359L8.96699 11.8611L9.40898 11.183C9.64512 10.8076 10.85 8.94277 12.0791 7.03555C13.3021 5.13437 14.3193 3.57226 14.3314 3.57226C14.3375 3.57226 14.9672 3.97187 15.724 4.45625ZM16.608 7.58652C16.717 7.63496 16.8986 7.78027 17.0197 7.91348C17.4617 8.40391 17.4436 9.12441 16.9713 9.57851C16.6928 9.85098 16.493 9.92969 16.0994 9.92969C14.8098 9.92969 14.4404 8.21621 15.5908 7.61074C15.8148 7.48965 16.3477 7.47754 16.608 7.58652ZM19.5748 8.2707C22.2994 8.79746 24.6971 10.9287 25.575 13.5928C25.8414 14.398 25.9201 14.8824 25.9564 15.8391C26.0109 17.3043 25.7385 18.5516 25.0846 19.823C24.7697 20.4285 24.0856 21.373 23.6557 21.7908L23.3832 22.0572L23.25 21.7969C23.1773 21.6516 22.9957 21.4094 22.8504 21.252L22.584 20.9674L22.802 20.7615C23.3832 20.2045 24.1037 19.0359 24.3943 18.1701C25.6355 14.5191 23.5406 10.5412 19.817 9.47558C19.5264 9.39082 19.1268 9.3 18.933 9.27578L18.5758 9.2334L18.5637 8.67031L18.5516 8.10723L18.8301 8.14355C18.9814 8.16777 19.3145 8.22227 19.5748 8.2707ZM10.0326 14.0045C10.2082 14.1074 10.3535 14.2164 10.3535 14.2346C10.3535 14.2648 9.78438 15.167 9.71777 15.2457C9.6875 15.282 8.71875 14.6402 8.71875 14.5857C8.71875 14.5615 8.85801 14.3133 9.02754 14.0469L9.33633 13.5625L9.53008 13.6836C9.63301 13.7502 9.85703 13.8955 10.0326 14.0045ZM21.5971 21.8271C22.3842 22.2207 22.5113 23.2258 21.8574 23.8191C21.5123 24.1279 21.1066 24.2248 20.701 24.0916C19.8291 23.7949 19.5506 22.7717 20.1561 22.0936C20.5375 21.6697 21.0764 21.5668 21.5971 21.8271ZM18.6182 22.917V23.5527H15.5182H12.4121V22.917V22.2812H15.5182H18.6182V22.917ZM17.3951 25.5932L17.8068 26.3984H15.5H13.1992L13.5686 25.6537C13.7744 25.248 13.9682 24.8787 13.9984 24.8363C14.0469 24.7818 14.4041 24.7637 15.5242 24.7758L16.9834 24.7939L17.3951 25.5932ZM23.3772 27.7607C23.7707 27.8939 24.2248 28.2633 24.4488 28.6387C24.5518 28.8203 24.6426 28.9898 24.6426 29.0141C24.6426 29.0383 20.5314 29.0625 15.5 29.0625C10.4746 29.0625 6.35742 29.0383 6.35742 29.0141C6.35742 28.8627 6.79336 28.2754 7.05371 28.0816C7.62285 27.6518 7.03555 27.682 15.4758 27.676C22.1299 27.6699 23.141 27.682 23.3772 27.7607Z" fill="white"/>
<path d="M10.6381 1.64688C10.3172 2.15547 10.2082 2.35527 10.2385 2.37949C10.3535 2.47637 11.1951 2.9668 11.2375 2.9668C11.2678 2.9668 11.4252 2.74277 11.5887 2.47637C11.8369 2.06465 11.8672 1.97383 11.8006 1.91328C11.7037 1.82246 10.9166 1.33203 10.8742 1.33203C10.8561 1.33203 10.7531 1.47734 10.6381 1.64688Z" fill="white"/>
<path d="M25.4539 2.00408C24.9272 2.15545 24.358 2.74276 24.2127 3.28768C24.0311 3.97186 24.2914 4.78319 24.8424 5.21912C25.7748 5.95174 27.0947 5.64901 27.6578 4.57127C27.8758 4.1535 27.8818 3.43904 27.676 3.00916C27.2764 2.18572 26.3137 1.75584 25.4539 2.00408ZM26.2774 3.23924C26.5014 3.35428 26.5801 3.49959 26.5801 3.80233C26.5801 4.41385 25.7445 4.60154 25.46 4.05662C25.1815 3.51776 25.7385 2.96072 26.2774 3.23924Z" fill="white"/>
<path d="M9.29394 3.82656C9.16679 4.03847 9.02148 4.26249 8.97909 4.33515C8.90644 4.45625 8.93066 4.48046 9.42109 4.77714C9.70566 4.95273 9.9539 5.08593 9.96601 5.06777C9.98417 5.0496 10.1295 4.82558 10.293 4.56523C10.517 4.20195 10.5715 4.06875 10.517 4.02031C10.4019 3.91738 9.633 3.45117 9.57851 3.45117C9.54824 3.45117 9.42109 3.6207 9.29394 3.82656Z" fill="white"/>
<path d="M7.93164 6.02441C7.75605 6.31504 7.6289 6.55723 7.64707 6.57539C7.77422 6.70254 8.64004 7.18692 8.67636 7.15059C8.74902 7.07793 9.26367 6.23027 9.26367 6.17578C9.26367 6.14551 9.09414 6.02441 8.88828 5.89727C8.67636 5.77012 8.45234 5.63086 8.37968 5.58848C8.25859 5.50977 8.23437 5.53399 7.93164 6.02441Z" fill="white"/>
<path d="M6.61778 8.14355L6.30899 8.65215L6.78731 8.96094C7.05372 9.12441 7.2959 9.26367 7.32012 9.26367C7.36856 9.26367 7.99219 8.3373 7.99219 8.2707C7.99219 8.24043 7.13243 7.70156 7.01739 7.65918C6.9629 7.64102 6.82969 7.79238 6.61778 8.14355Z" fill="white"/>
<path d="M5.5461 9.88124C5.50371 9.95995 5.36446 10.184 5.23731 10.3777C5.02539 10.7228 5.01934 10.741 5.12227 10.8258C5.32813 10.9771 6.06075 11.401 6.07891 11.3768C6.17579 11.2496 6.66016 10.4201 6.66016 10.3777C6.66016 10.3232 5.75801 9.74804 5.67325 9.74804C5.65508 9.74804 5.59454 9.80859 5.5461 9.88124Z" fill="white"/>
<path d="M27.3127 11.2859C26.9676 11.4736 26.9252 11.8369 27.1856 12.2547C27.6941 13.0539 28.1059 14.0832 28.3178 15.0762C28.4813 15.8754 28.4691 17.3891 28.2875 18.2488C28.1664 18.7937 28.1543 18.933 28.2209 19.0844C28.3178 19.3266 28.4994 19.4355 28.79 19.4355C29.1775 19.4355 29.335 19.2297 29.4924 18.5273C29.6498 17.8008 29.7164 16.1055 29.6135 15.3668C29.45 14.2346 29.0262 12.9691 28.4813 12.0186C28.0393 11.2436 27.7365 11.0498 27.3127 11.2859Z" fill="white"/>
<path d="M15.609 15.5787C14.5979 15.8633 14.0348 16.9773 14.3859 18.0006C14.61 18.6666 15.3668 19.1934 16.0873 19.1934C17.716 19.1934 18.5576 17.3164 17.4678 16.1176C17.0258 15.6271 16.2508 15.4031 15.609 15.5787ZM16.5535 16.9592C16.826 17.2801 16.7533 17.716 16.3961 17.8977C16.1357 18.0309 15.8512 17.9643 15.6514 17.7281C15.5121 17.5646 15.4939 17.492 15.5182 17.2922C15.5666 16.9531 15.7846 16.7715 16.1357 16.7715C16.3537 16.7715 16.4203 16.8018 16.5535 16.9592Z" fill="white"/>
</svg>
