<svg width="31" height="31" viewBox="0 0 31 31" fill="none" xmlns="http://www.w3.org/2000/svg">
<g clip-path="url(#clip0_44_56)">
<path d="M9.3666 0.133204C9.26367 0.242188 9.11836 0.738672 8.71875 2.34316C8.16777 4.5834 8.16172 4.65 8.50683 4.7832C8.62187 4.82559 8.6582 4.88613 8.6582 5.03145C8.6582 5.27969 8.12539 12.8178 8.07695 13.2416L8.04668 13.5625H5.01328C1.66504 13.5625 1.71953 13.5564 1.42285 13.95C1.32598 14.0771 1.08984 14.8461 0.641797 16.4506C0.290625 17.7281 0 18.8422 0 18.927C0 19.3266 0.393555 19.7746 0.811328 19.8412C0.980859 19.8654 1.0293 19.9018 1.0293 20.0047C1.0293 20.0713 1.11406 21.0037 1.21094 22.0693C1.30781 23.135 1.39258 24.0492 1.39258 24.1037C1.39258 24.1824 1.31387 24.2127 0.999023 24.2309C0.58125 24.2551 0.3875 24.358 0.157422 24.6668C0.0302734 24.8303 0.0302734 24.8969 0.0302734 27.6094C0.0302734 30.3219 0.0302734 30.3885 0.157422 30.552C0.224023 30.6428 0.357227 30.776 0.448047 30.8426L0.611523 30.9697H15.5H30.3885L30.552 30.8426C30.6428 30.776 30.776 30.6428 30.8426 30.552C30.9637 30.3885 30.9697 30.3037 30.9879 27.7729C31 26.3318 30.9879 25.0664 30.9697 24.9574C30.9455 24.8363 30.8365 24.6607 30.6973 24.5215L30.4672 24.2914L30.2492 22.5719L30.0312 20.8584L29.7891 10.6623C29.6559 5.05566 29.5287 0.399611 29.5105 0.3209C29.4197 -0.0181637 30.0676 0 19.3568 0H9.4998L9.3666 0.133204ZM15.9844 3.48145V6.0002L16.1357 6.14551C16.3355 6.35137 16.5172 6.3332 17.0137 6.08496L17.4375 5.87305L17.8613 6.08496C18.0914 6.2 18.3396 6.29688 18.4062 6.29688C18.4728 6.29688 18.7211 6.2 18.9512 6.08496L19.375 5.87305L19.7988 6.08496C20.2953 6.3332 20.477 6.35137 20.6768 6.14551C20.816 6.01231 20.8281 5.95176 20.8281 5.41895V4.84375H23.9463H27.0644V5.1041C27.0644 5.24941 26.8586 8.85195 26.6103 13.1145C26.2107 19.8896 26.126 21.0643 25.9443 22.4932C25.8293 23.3893 25.7324 24.1461 25.7324 24.1703C25.7324 24.1945 23.3348 24.2188 20.4043 24.2188C15.3728 24.2188 15.0762 24.2127 15.0762 24.1098C15.0762 24.0553 15.1609 23.135 15.2578 22.0693C15.3547 21.0037 15.4395 20.0713 15.4395 20.0047C15.4395 19.9018 15.4879 19.8654 15.6574 19.8412C16.0752 19.7746 16.4687 19.3266 16.4687 18.927C16.4687 18.8422 16.1781 17.7281 15.827 16.4506C15.3789 14.8461 15.1428 14.0771 15.0459 13.95C14.7492 13.5625 14.7674 13.5625 11.7461 13.5625H9.00937L9.03965 13.3627C9.05781 13.2598 9.20312 11.298 9.36055 9.00332L9.65117 4.84375H12.4303H15.2033L15.3486 4.69238C15.4455 4.60156 15.5 4.47441 15.5 4.35938C15.5 4.24434 15.4455 4.11719 15.3486 4.02637L15.2033 3.875H12.2729H9.33633L9.69961 2.42188L10.0629 0.96875H13.0236H15.9844V3.48145ZM19.8594 2.99707V5.03145L19.6777 4.93457C19.4234 4.80137 19.3023 4.81953 18.8301 5.05566L18.4062 5.26758L17.9824 5.05566C17.5102 4.81953 17.3891 4.80137 17.1348 4.93457L16.9531 5.03145V2.99707V0.96875H18.4062H19.8594V2.99707ZM28.0816 2.42188L27.7184 3.875H24.2732H20.8281V2.42188V0.96875H24.6365H28.4449L28.0816 2.42188ZM28.8687 12.6361C29.0686 20.8887 29.0686 20.9916 29.2441 22.3721C29.341 23.135 29.4379 23.8676 29.4561 23.9887L29.4863 24.2188H28.0937C27.3309 24.2188 26.7012 24.2006 26.7012 24.1703C26.7072 24.1461 26.798 23.4195 26.907 22.5537C27.0826 21.1975 27.1795 19.8836 27.5852 12.9389L28.0635 4.89824L28.2754 4.79531C28.4207 4.72266 28.5055 4.63184 28.5478 4.49258C28.5781 4.38965 28.6205 4.29883 28.6387 4.29883C28.6568 4.29883 28.7598 8.05273 28.8687 12.6361ZM14.3496 14.7553C14.3799 14.8824 14.6523 15.8572 14.943 16.9229L15.4818 18.8604L8.24648 18.8785C4.2625 18.8846 1.00508 18.8846 0.992969 18.8725C0.986914 18.8664 1.21699 18.0006 1.51367 16.9531C1.8043 15.9057 2.07676 14.9309 2.11309 14.7855L2.18574 14.5312H8.23437H14.283L14.3496 14.7553ZM5.82461 20.5193C5.84277 21.2338 5.89726 21.373 6.26055 21.6395C6.41797 21.7605 6.50273 21.7666 8.23437 21.7666C9.96601 21.7666 10.0508 21.7605 10.2082 21.6395C10.5715 21.373 10.626 21.2338 10.6441 20.5193L10.6684 19.8594H12.5695C14.0529 19.8594 14.4707 19.8775 14.4707 19.932C14.4707 19.9744 14.3738 20.9492 14.2588 22.0996C14.1437 23.25 14.0469 24.1945 14.0469 24.2006C14.0469 24.2127 11.4191 24.2188 8.2041 24.2188H2.36133V24.0795C2.36133 24.0068 2.27656 23.0744 2.17969 22.0088C2.08281 20.9432 1.99805 20.0229 1.99805 19.9623C1.99805 19.8654 2.13125 19.8594 3.89922 19.8594H5.80039L5.82461 20.5193ZM9.6875 20.3438V20.8281H8.23437H6.78125V20.3438V19.8594H8.23437H9.6875V20.3438ZM17.9219 26.1562V27.125H15.5H13.0781V26.5498C13.0781 26.017 13.066 25.9564 12.9268 25.8232C12.733 25.6234 12.4545 25.6234 12.2547 25.8232C12.1033 25.9746 12.0973 25.9928 12.1215 26.7314C12.1396 27.5428 12.182 27.6578 12.5574 27.9363C12.7209 28.0635 12.7875 28.0635 15.5 28.0635C18.2125 28.0635 18.2791 28.0635 18.4426 27.9363C18.8422 27.6396 18.8603 27.5852 18.8785 26.3318L18.8967 25.1875H24.467H30.0312V27.6094V30.0312H15.5H0.96875V27.6094V25.1875H9.44531H17.9219V26.1562Z" fill="white"/>
</g>
<defs>
<clipPath id="clip0_44_56">
<rect width="31" height="31" fill="white"/>
</clipPath>
</defs>
</svg>
