<svg width="31" height="31" viewBox="0 0 31 31" fill="none" xmlns="http://www.w3.org/2000/svg">
<path d="M7.02949 0.581251C6.00625 0.853712 5.20703 1.67109 4.93457 2.70645C4.85586 2.99707 4.84375 3.71152 4.84375 7.15059V11.2496L4.66211 11.3223C4.40781 11.4252 4.03242 11.8672 3.94766 12.1578C3.89922 12.3152 3.875 12.9873 3.875 14.1922V15.9844H2.80937C2.14336 15.9844 1.64687 16.0146 1.48945 16.057C1.15644 16.1539 0.653906 16.6564 0.557031 16.9895C0.454101 17.3406 0.454101 24.7939 0.557031 25.1391C0.647851 25.4357 1.01719 25.8656 1.31387 26.0109C1.50156 26.1018 1.73164 26.132 2.47637 26.1562L3.41484 26.1865L3.4875 26.5801C3.79629 28.2209 4.97695 29.6316 6.52695 30.1947C7.64707 30.6064 8.76113 30.6125 9.89336 30.2189C11.4736 29.6619 12.733 28.1543 12.9994 26.4893L13.0479 26.1865L14.8279 26.1684L16.608 26.1562L16.39 26.3984C16.1115 26.7012 16.057 26.8949 16.1963 27.1129C16.3537 27.3551 18.158 29.1654 18.3941 29.3107C18.6605 29.4803 18.8301 29.4318 19.2297 29.0504L19.5566 28.7416L19.9684 28.9293C20.1924 29.0262 20.477 29.1412 20.6041 29.1836L20.8281 29.2563V29.7346C20.8281 30.1645 20.8463 30.2371 20.9795 30.3643L21.1248 30.5156H22.7656H24.4064L24.5518 30.3643C24.685 30.2371 24.7031 30.1645 24.7031 29.7346V29.2563L24.9332 29.1836C25.0543 29.1412 25.3389 29.0262 25.5629 28.9293L25.9746 28.7416L26.3016 29.0504C26.7012 29.4258 26.8707 29.4803 27.1371 29.3168C27.458 29.117 29.3531 27.1674 29.3955 26.9918C29.45 26.792 29.3592 26.6164 29.0141 26.2652L28.7416 25.9807L28.9232 25.5689C29.0262 25.3449 29.1412 25.0543 29.1836 24.9271L29.2563 24.7031H29.7346C30.1645 24.7031 30.2371 24.685 30.3643 24.5518L30.5156 24.4064V22.7656V21.1248L30.3643 20.9795C30.2371 20.8463 30.1645 20.8281 29.7346 20.8281H29.2563L29.1836 20.598C29.1412 20.477 29.0262 20.1863 28.9232 19.9623L28.7416 19.5506L29.0141 19.266C29.3592 18.9148 29.45 18.7393 29.3955 18.5395C29.3531 18.3639 27.458 16.4143 27.1371 16.2145C27.01 16.1357 26.8889 16.1055 26.792 16.1297L26.6406 16.166V14.7674C26.6406 13.8652 26.6164 13.2779 26.568 13.1266C26.4832 12.8359 26.1078 12.3939 25.8535 12.291L25.6719 12.2184V9.25762V6.29688H26.0049C26.2834 6.29688 26.3682 6.27266 26.4893 6.14551C26.6406 6.0002 26.6406 5.98809 26.6406 4.84375C26.6406 3.69942 26.6406 3.68731 26.4893 3.54199L26.3439 3.39062H19.375H12.4061L12.2607 3.54199C12.1094 3.68731 12.1094 3.69942 12.1094 4.84375C12.1094 6.3877 12.0246 6.29688 13.4717 6.29688H14.5312V9.20312V12.1094H14.1256C13.3627 12.1094 13.3021 12.1578 11.5221 14.1922L9.95996 15.9844H9.34238H8.71875V14.1922C8.71875 12.9873 8.69453 12.3152 8.64609 12.1578C8.56133 11.8672 8.18594 11.4252 7.93164 11.3223L7.75 11.2436L7.76211 7.62285C7.78027 4.07481 7.78027 4.00215 7.90742 3.83867C8.19805 3.44512 8.2707 3.4209 9.39688 3.39062C10.7471 3.34824 10.6562 3.45723 10.6562 1.92539C10.6562 0.793165 10.6562 0.781055 10.5049 0.635742L10.3596 0.484375L8.85801 0.490431C7.75 0.490431 7.27168 0.514648 7.02949 0.581251ZM9.6875 1.93145V2.40977L8.94883 2.43398C8.3252 2.4582 8.15566 2.48242 7.90137 2.60957C7.51992 2.79121 7.15664 3.15449 6.96289 3.54199L6.81152 3.84473L6.79336 7.48965L6.7752 11.1406H6.29082H5.80645L5.82461 7.00527L5.84277 2.87598L5.99414 2.57324C6.25449 2.05254 6.75098 1.64082 7.2959 1.50762C7.39883 1.4834 7.97402 1.46523 8.58555 1.45918L9.6875 1.45312V1.93145ZM25.6719 4.84375V5.32812H19.375H13.0781V4.84375V4.35938H19.375H25.6719V4.84375ZM24.7031 9.20312V12.1094H24.2188H23.7344V9.83887V7.56231L23.583 7.41699L23.4377 7.26562H19.4658H15.5V6.78125V6.29688H20.1016H24.7031V9.20312ZM22.7656 10.1719V12.1094H19.1328H15.5V10.1719V8.23438H19.1328H22.7656V10.1719ZM7.59863 12.2607L7.75 12.4061V14.1982V15.9844H6.29688H4.84375V14.1982V12.4061L4.99512 12.2607C5.14043 12.1094 5.15254 12.1094 6.29688 12.1094C7.44121 12.1094 7.45332 12.1094 7.59863 12.2607ZM25.5205 13.2295L25.6719 13.3748V15.0035V16.6383L25.1875 16.4506L24.7031 16.2629V15.7906C24.7031 15.3668 24.685 15.2941 24.5518 15.167L24.4064 15.0156H22.7656H21.1248L20.9795 15.167C20.8463 15.2941 20.8281 15.3668 20.8281 15.7967V16.275L20.6041 16.3477C20.477 16.39 20.1924 16.5051 19.9684 16.602L19.5566 16.7896L19.2297 16.4809C18.8301 16.1055 18.6605 16.051 18.3941 16.2145C18.0732 16.4143 16.1781 18.3639 16.1357 18.5395C16.0813 18.7393 16.1721 18.9148 16.5172 19.266L16.7896 19.5506L16.608 19.9623C16.5051 20.1863 16.39 20.477 16.3477 20.598L16.275 20.8281H15.7967C15.3668 20.8281 15.2941 20.8463 15.167 20.9795L15.0156 21.1248V22.7656V24.4064L15.167 24.5518C15.2941 24.685 15.3668 24.7031 15.7967 24.7031H16.275L16.3416 24.8908C16.3779 24.9998 16.4082 25.1088 16.4082 25.1391C16.4082 25.1633 15.6514 25.1814 14.7311 25.1754L13.0479 25.1572L12.9994 24.8545C12.6119 22.4508 10.3838 20.6889 7.93164 20.8463C6.24844 20.9553 4.7832 21.8938 3.97793 23.3711C3.73574 23.8131 3.52383 24.4307 3.46328 24.8666L3.4209 25.1572L2.58535 25.1754C1.76797 25.1936 1.7498 25.1875 1.60449 25.0422L1.45312 24.8908V21.0703V17.2498L1.60449 17.1045L1.7498 16.9531H6.06074H10.3717L10.6199 16.6807C10.7592 16.5354 11.4979 15.6938 12.2607 14.8098C13.0297 13.9318 13.7078 13.1811 13.7744 13.1508C13.8531 13.1084 15.8209 13.0842 19.6354 13.0842L25.3752 13.0781L25.5205 13.2295ZM23.7344 16.4082C23.7344 16.9289 23.807 17.0197 24.3822 17.1893C24.6063 17.2559 25.0785 17.4496 25.4236 17.6131C26.1441 17.9582 26.1986 17.9582 26.6285 17.5404L26.8828 17.2861L27.5609 17.9703L28.2451 18.6484L27.9908 18.9027C27.573 19.3326 27.573 19.3871 27.9182 20.1076C28.0816 20.4527 28.2754 20.925 28.342 21.149C28.5115 21.7242 28.6023 21.7969 29.123 21.7969H29.5469V22.7656V23.7344H29.123C28.6023 23.7344 28.5115 23.807 28.342 24.3822C28.2754 24.6063 28.0816 25.0785 27.9182 25.4236C27.573 26.1441 27.573 26.1986 27.9908 26.6285L28.2451 26.8828L27.5609 27.5609L26.8828 28.2451L26.6285 27.9908C26.1986 27.573 26.1441 27.573 25.4236 27.9182C25.0785 28.0816 24.6063 28.2754 24.3822 28.342C23.807 28.5115 23.7344 28.6023 23.7344 29.123V29.5469H22.7656H21.7969V29.123C21.7969 28.6023 21.7242 28.5115 21.149 28.342C20.925 28.2754 20.4527 28.0816 20.1076 27.9182C19.3871 27.573 19.3326 27.573 18.9027 27.9908L18.6484 28.2451L17.9703 27.5609L17.2861 26.8828L17.5404 26.6285C17.9582 26.1986 17.9582 26.1441 17.6131 25.4236C17.4496 25.0785 17.2559 24.6063 17.1893 24.3822C17.0197 23.807 16.9289 23.7344 16.4082 23.7344H15.9844V22.7656V21.7969H16.3961C16.9168 21.7969 17.0258 21.7061 17.1893 21.149C17.2619 20.9189 17.4496 20.4527 17.6131 20.1076C17.9582 19.3871 17.9582 19.3326 17.5404 18.9027L17.2861 18.6484L17.9703 17.9703L18.6484 17.2861L18.9027 17.5404C19.3326 17.9582 19.3871 17.9582 20.1076 17.6131C20.4527 17.4496 20.9189 17.2619 21.149 17.1893C21.7061 17.0258 21.7969 16.9168 21.7969 16.3961V15.9844H22.7656H23.7344V16.4082ZM9.0457 21.8877C11.2678 22.36 12.6422 24.7576 11.9096 26.8768C11.6916 27.4943 11.4191 27.9303 10.959 28.3965C10.4988 28.8506 10.0629 29.1291 9.4332 29.3531C9.05176 29.4863 8.89434 29.5105 8.26465 29.5166C7.67734 29.5166 7.45937 29.4924 7.11426 29.3834C5.18887 28.7719 4.03848 26.8102 4.4502 24.8605C4.88613 22.7959 6.96895 21.4457 9.0457 21.8877Z" fill="white"/>
<path d="M13.5625 15.0156V15.5H14.7734H15.9844V15.0156V14.5312H14.7734H13.5625V15.0156Z" fill="white"/>
<path d="M13.5625 16.9531V17.4375H14.7734H15.9844V16.9531V16.4688H14.7734H13.5625V16.9531Z" fill="white"/>
<path d="M5.32812 18.4062V18.8906H7.99219H10.6562V18.4062V17.9219H7.99219H5.32812V18.4062Z" fill="white"/>
<path d="M21.918 18.9814C20.8523 19.2115 19.7928 20.041 19.3205 21.0219C18.7514 22.1965 18.7514 23.3348 19.3205 24.5094C19.932 25.7809 21.3246 26.6406 22.7656 26.6406C24.2006 26.6406 25.5568 25.799 26.2047 24.5215C26.8041 23.3227 26.7738 21.9604 26.1139 20.8281C25.2723 19.3871 23.5648 18.6303 21.918 18.9814ZM23.4619 19.9502C24.9029 20.3256 25.8414 21.7121 25.6295 23.1652C25.4478 24.4488 24.4428 25.4479 23.1531 25.6295C21.1611 25.9201 19.4477 24.0189 19.9502 22.0814C20.3559 20.5193 21.9422 19.5566 23.4619 19.9502Z" fill="white"/>
<path d="M22.1602 20.925C21.3004 21.2398 20.7736 22.033 20.8402 22.9049C20.9977 24.8303 23.5225 25.3691 24.4549 23.6738C24.6547 23.3105 24.6729 23.2439 24.6729 22.7656C24.6729 22.2934 24.6547 22.2146 24.467 21.8695C24.1158 21.2277 23.5951 20.8947 22.8625 20.8523C22.5598 20.8342 22.3539 20.8584 22.1602 20.925ZM23.1471 21.8816C23.7707 22.142 23.9221 22.9533 23.4377 23.4377C23.0441 23.8312 22.4871 23.8312 22.0936 23.4377C21.3428 22.693 22.1723 21.4699 23.1471 21.8816Z" fill="white"/>
<path d="M7.66523 23.3105C7.28379 23.4074 6.73887 23.7344 6.47246 24.0189C6.33926 24.1643 6.13945 24.467 6.03652 24.691C5.86094 25.0604 5.84277 25.1512 5.84277 25.6779C5.84277 26.2229 5.85488 26.2773 6.0668 26.7133C6.33926 27.2643 6.69043 27.6033 7.25352 27.8697C7.62285 28.0453 7.71367 28.0635 8.23438 28.0635C8.75508 28.0635 8.8459 28.0453 9.21523 27.8697C9.77832 27.6033 10.1295 27.2643 10.402 26.7133C10.6139 26.2773 10.626 26.2229 10.626 25.6719C10.626 25.1209 10.6139 25.0664 10.402 24.6305C9.99023 23.807 9.26367 23.3166 8.36758 23.2742C8.11328 23.2621 7.79844 23.2803 7.66523 23.3105ZM8.68242 24.2914C9.20312 24.4488 9.6875 25.1148 9.6875 25.6719C9.6875 26.4227 8.98516 27.125 8.23438 27.125C7.85293 27.125 7.54414 26.9857 7.23535 26.6709C6.61777 26.0594 6.61777 25.2844 7.23535 24.6729C7.65918 24.243 8.11328 24.1279 8.68242 24.2914Z" fill="white"/>
</svg>
